<?xml version="1.0" encoding="UTF-8" standalone="no"?>
<!DOCTYPE svg PUBLIC "-//W3C//DTD SVG 1.1//EN"
 "http://www.w3.org/Graphics/SVG/1.1/DTD/svg11.dtd">
<!-- Generated by graphviz version 2.43.0 (0)
 -->
<!-- Title: my_graph Pages: 1 -->
<svg width="186pt" height="349pt"
 viewBox="0.00 0.00 186.37 348.74" xmlns="http://www.w3.org/2000/svg" xmlns:xlink="http://www.w3.org/1999/xlink">
<g id="graph0" class="graph" transform="scale(1 1) rotate(0) translate(4 344.74)">
<title>my_graph</title>
<polygon fill="#0f0f23" stroke="transparent" points="-4,4 -4,-344.74 182.37,-344.74 182.37,4 -4,4"/>
<!-- 11A -->
<g id="node1" class="node">
<title>11A</title>
<ellipse fill="#55aa55" stroke="#55aa55" cx="27" cy="-271.3" rx="27" ry="18"/>
<text text-anchor="middle" x="27" y="-267.6" font-family="Times,serif" font-size="14.00" fill="#ffffff">11A</text>
</g>
<!-- 11B -->
<g id="node2" class="node">
<title>11B</title>
<ellipse fill="none" stroke="#ffffff" cx="117.89" cy="-286.09" rx="27" ry="18"/>
<text text-anchor="middle" x="117.89" y="-282.39" font-family="Times,serif" font-size="14.00" fill="#ffffff">11B</text>
</g>
<!-- 11A&#45;&gt;11B -->
<g id="edge1" class="edge">
<title>11A&#45;&gt;11B</title>
<path fill="none" stroke="#009900" d="M53.29,-275.58C62.07,-277.01 72.01,-278.63 81.42,-280.16"/>
<polygon fill="#009900" stroke="#009900" points="80.91,-283.62 91.34,-281.77 82.04,-276.71 80.91,-283.62"/>
</g>
<!-- XXX -->
<g id="node3" class="node">
<title>XXX</title>
<ellipse fill="none" stroke="#ffffff" cx="82.67" cy="-234.39" rx="29.8" ry="18"/>
<text text-anchor="middle" x="82.67" y="-230.69" font-family="Times,serif" font-size="14.00" fill="#ffffff">XXX</text>
</g>
<!-- 11A&#45;&gt;XXX -->
<g id="edge2" class="edge">
<title>11A&#45;&gt;XXX</title>
<path fill="none" stroke="#e7e75f" d="M46.16,-258.6C48.72,-256.9 51.38,-255.13 54.06,-253.36"/>
<polygon fill="#e7e75f" stroke="#e7e75f" points="56.12,-256.19 62.52,-247.75 52.26,-250.35 56.12,-256.19"/>
</g>
<!-- 11B&#45;&gt;XXX -->
<g id="edge3" class="edge">
<title>11B&#45;&gt;XXX</title>
<path fill="none" stroke="#009900" d="M106.55,-269.45C104.46,-266.37 102.23,-263.1 100,-259.84"/>
<polygon fill="#009900" stroke="#009900" points="102.75,-257.65 94.22,-251.36 96.96,-261.59 102.75,-257.65"/>
</g>
<!-- 11Z -->
<g id="node4" class="node">
<title>11Z</title>
<ellipse fill="#e7e75f" stroke="#e7e75f" cx="80.21" cy="-322.74" rx="27" ry="18"/>
<text text-anchor="middle" x="80.21" y="-319.04" font-family="Times,serif" font-size="14.00" fill="#0f0f23">11Z</text>
</g>
<!-- 11B&#45;&gt;11Z -->
<g id="edge4" class="edge">
<title>11B&#45;&gt;11Z</title>
<path fill="none" stroke="#e7e75f" d="M96.57,-297.47C96.32,-297.7 96.06,-297.94 95.8,-298.18"/>
<polygon fill="#e7e75f" stroke="#e7e75f" points="93.21,-295.83 88.75,-305.43 98.23,-300.71 93.21,-295.83"/>
</g>
<!-- XXX&#45;&gt;XXX -->
<g id="edge15" class="edge">
<title>XXX&#45;&gt;XXX</title>
<path fill="none" stroke="#009900" d="M112.13,-237.76C122.33,-237.8 130.56,-236.68 130.56,-234.39 130.56,-232.96 127.35,-231.99 122.44,-231.47"/>
<polygon fill="#009900" stroke="#009900" points="122.27,-227.96 112.13,-231.02 121.97,-234.95 122.27,-227.96"/>
</g>
<!-- XXX&#45;&gt;XXX -->
<g id="edge16" class="edge">
<title>XXX&#45;&gt;XXX</title>
<path fill="none" stroke="#e7e75f" d="M111.11,-240.55C130.09,-242.28 148.56,-240.23 148.56,-234.39 148.56,-229.6 136.13,-227.36 121.19,-227.67"/>
<polygon fill="#e7e75f" stroke="#e7e75f" points="120.9,-224.18 111.11,-228.24 121.29,-231.17 120.9,-224.18"/>
</g>
<!-- 11Z&#45;&gt;11B -->
<g id="edge5" class="edge">
<title>11Z&#45;&gt;11B</title>
<path fill="none" stroke="#009900" d="M101.52,-311.37C101.78,-311.13 102.04,-310.89 102.3,-310.65"/>
<polygon fill="#009900" stroke="#009900" points="104.88,-313.01 109.35,-303.4 99.87,-308.13 104.88,-313.01"/>
</g>
<!-- 11Z&#45;&gt;XXX -->
<g id="edge6" class="edge">
<title>11Z&#45;&gt;XXX</title>
<path fill="none" stroke="#e7e75f" d="M80.72,-304.44C81.05,-292.47 81.49,-276.6 81.87,-262.99"/>
<polygon fill="#e7e75f" stroke="#e7e75f" points="85.38,-262.77 82.16,-252.67 78.38,-262.57 85.38,-262.77"/>
</g>
<!-- 22A -->
<g id="node5" class="node">
<title>22A</title>
<ellipse fill="#55aa55" stroke="#55aa55" cx="100.62" cy="-160.56" rx="27" ry="18"/>
<text text-anchor="middle" x="100.62" y="-156.86" font-family="Times,serif" font-size="14.00" fill="#ffffff">22A</text>
</g>
<!-- 22A&#45;&gt;XXX -->
<g id="edge8" class="edge">
<title>22A&#45;&gt;XXX</title>
<path fill="none" stroke="#e7e75f" d="M96.28,-178.43C94.22,-186.89 91.71,-197.19 89.42,-206.64"/>
<polygon fill="#e7e75f" stroke="#e7e75f" points="86,-205.88 87.03,-216.43 92.8,-207.54 86,-205.88"/>
</g>
<!-- 22B -->
<g id="node6" class="node">
<title>22B</title>
<ellipse fill="none" stroke="#ffffff" cx="108.39" cy="-86.53" rx="27" ry="18"/>
<text text-anchor="middle" x="108.39" y="-82.83" font-family="Times,serif" font-size="14.00" fill="#ffffff">22B</text>
</g>
<!-- 22A&#45;&gt;22B -->
<g id="edge7" class="edge">
<title>22A&#45;&gt;22B</title>
<path fill="none" stroke="#009900" d="M102.54,-142.26C103.42,-133.92 104.47,-123.86 105.44,-114.6"/>
<polygon fill="#009900" stroke="#009900" points="108.93,-114.93 106.49,-104.62 101.97,-114.2 108.93,-114.93"/>
</g>
<!-- 22C -->
<g id="node7" class="node">
<title>22C</title>
<ellipse fill="none" stroke="#ffffff" cx="80.69" cy="-18" rx="27" ry="18"/>
<text text-anchor="middle" x="80.69" y="-14.3" font-family="Times,serif" font-size="14.00" fill="#ffffff">22C</text>
</g>
<!-- 22B&#45;&gt;22C -->
<g id="edge9" class="edge">
<title>22B&#45;&gt;22C</title>
<path fill="none" stroke="#009900" d="M107.34,-68.46C105.12,-60.67 101.69,-51.44 97.95,-43.02"/>
<polygon fill="#009900" stroke="#009900" points="101.11,-41.5 93.66,-33.96 94.78,-44.5 101.11,-41.5"/>
</g>
<!-- 22B&#45;&gt;22C -->
<g id="edge10" class="edge">
<title>22B&#45;&gt;22C</title>
<path fill="none" stroke="#e7e75f" d="M95.35,-70.43C91.64,-63.14 87.9,-54.33 84.94,-46.02"/>
<polygon fill="#e7e75f" stroke="#e7e75f" points="88.2,-44.7 81.79,-36.26 81.54,-46.85 88.2,-44.7"/>
</g>
<!-- 22Z -->
<g id="node8" class="node">
<title>22Z</title>
<ellipse fill="#e7e75f" stroke="#e7e75f" cx="151.37" cy="-26.72" rx="27" ry="18"/>
<text text-anchor="middle" x="151.37" y="-23.02" font-family="Times,serif" font-size="14.00" fill="#0f0f23">22Z</text>
</g>
<!-- 22C&#45;&gt;22Z -->
<g id="edge11" class="edge">
<title>22C&#45;&gt;22Z</title>
<path fill="none" stroke="#009900" d="M103.83,-27.33C107.28,-27.96 110.9,-28.51 114.54,-28.97"/>
<polygon fill="#009900" stroke="#009900" points="114.43,-32.48 124.73,-30.01 115.13,-25.52 114.43,-32.48"/>
</g>
<!-- 22C&#45;&gt;22Z -->
<g id="edge12" class="edge">
<title>22C&#45;&gt;22Z</title>
<path fill="none" stroke="#e7e75f" d="M107.4,-14.71C110.92,-14.98 114.56,-15.36 118.16,-15.82"/>
<polygon fill="#e7e75f" stroke="#e7e75f" points="117.7,-19.29 128.12,-17.37 118.77,-12.38 117.7,-19.29"/>
</g>
<!-- 22Z&#45;&gt;22B -->
<g id="edge13" class="edge">
<title>22Z&#45;&gt;22B</title>
<path fill="none" stroke="#009900" d="M133.66,-40.71C128.85,-46.45 123.81,-53.26 119.45,-59.86"/>
<polygon fill="#009900" stroke="#009900" points="116.32,-58.27 114.02,-68.62 122.26,-61.96 116.32,-58.27"/>
</g>
<!-- 22Z&#45;&gt;22B -->
<g id="edge14" class="edge">
<title>22Z&#45;&gt;22B</title>
<path fill="none" stroke="#e7e75f" d="M145.74,-44.62C142.14,-50.88 137.39,-57.95 132.47,-64.5"/>
<polygon fill="#e7e75f" stroke="#e7e75f" points="129.67,-62.39 126.21,-72.4 135.16,-66.73 129.67,-62.39"/>
</g>
</g>
</svg>
