<?xml version="1.0" encoding="UTF-8" standalone="no"?>
<!DOCTYPE svg PUBLIC "-//W3C//DTD SVG 1.1//EN"
 "http://www.w3.org/Graphics/SVG/1.1/DTD/svg11.dtd">
<!-- Generated by graphviz version 2.43.0 (0)
 -->
<!-- Title: my_graph Pages: 1 -->
<svg width="1181pt" height="1123pt"
 viewBox="0.00 0.00 1181.00 1123.00" xmlns="http://www.w3.org/2000/svg" xmlns:xlink="http://www.w3.org/1999/xlink">
<g id="graph0" class="graph" transform="scale(1 1) rotate(0) translate(4 1119)">
<title>my_graph</title>
<polygon fill="#0f0f23" stroke="transparent" points="-4,4 -4,-1119 1177,-1119 1177,4 -4,4"/>
<!-- jr -->
<g id="node1" class="node">
<title>jr</title>
<ellipse fill="#55aa55" stroke="#55aa55" cx="746.64" cy="-160.79" rx="27" ry="18"/>
<text text-anchor="middle" x="746.64" y="-157.09" font-family="Times,serif" font-size="14.00" fill="#ffffff">jr</text>
</g>
<!-- mq -->
<g id="node19" class="node">
<title>mq</title>
<ellipse fill="#e7e75f" stroke="#e7e75f" cx="695.4" cy="-245.44" rx="27" ry="18"/>
<text text-anchor="middle" x="695.4" y="-241.74" font-family="Times,serif" font-size="14.00" fill="#0f0f23">mq</text>
</g>
<!-- jr&#45;&gt;mq -->
<g id="edge1" class="edge">
<title>jr&#45;&gt;mq</title>
<path fill="none" stroke="#009900" d="M736.52,-177.52C729.27,-189.5 719.37,-205.86 711.09,-219.52"/>
<polygon fill="#009900" stroke="#009900" points="707.87,-218.1 705.68,-228.46 713.85,-221.72 707.87,-218.1"/>
</g>
<!-- xn -->
<g id="node28" class="node">
<title>xn</title>
<ellipse fill="#55aa55" stroke="#55aa55" cx="699.92" cy="-186.68" rx="27" ry="18"/>
<text text-anchor="middle" x="699.92" y="-182.98" font-family="Times,serif" font-size="14.00" fill="#ffffff">xn</text>
</g>
<!-- jr&#45;&gt;xn -->
<g id="edge2" class="edge">
<title>jr&#45;&gt;xn</title>
<path fill="none" stroke="#009900" d="M725.74,-172.37C725.64,-172.43 725.53,-172.49 725.43,-172.54"/>
<polygon fill="#009900" stroke="#009900" points="727.82,-167.22 720.77,-175.13 731.21,-173.34 727.82,-167.22"/>
</g>
<!-- zl -->
<g id="node2" class="node">
<title>zl</title>
<ellipse fill="#55aa55" stroke="#55aa55" cx="206.63" cy="-521.26" rx="27" ry="18"/>
<text text-anchor="middle" x="206.63" y="-517.56" font-family="Times,serif" font-size="14.00" fill="#ffffff">zl</text>
</g>
<!-- cm -->
<g id="node5" class="node">
<title>cm</title>
<ellipse fill="#55aa55" stroke="#55aa55" cx="268.9" cy="-532.2" rx="27" ry="18"/>
<text text-anchor="middle" x="268.9" y="-528.5" font-family="Times,serif" font-size="14.00" fill="#ffffff">cm</text>
</g>
<!-- zl&#45;&gt;cm -->
<g id="edge4" class="edge">
<title>zl&#45;&gt;cm</title>
<path fill="none" stroke="#009900" d="M233.04,-525.9C233.14,-525.92 233.24,-525.94 233.34,-525.95"/>
<polygon fill="#009900" stroke="#009900" points="232.2,-529.31 242.65,-527.59 233.41,-522.41 232.2,-529.31"/>
</g>
<!-- tz -->
<g id="node15" class="node">
<title>tz</title>
<ellipse fill="#e7e75f" stroke="#e7e75f" cx="305.69" cy="-453.56" rx="27" ry="18"/>
<text text-anchor="middle" x="305.69" y="-449.86" font-family="Times,serif" font-size="14.00" fill="#0f0f23">tz</text>
</g>
<!-- zl&#45;&gt;tz -->
<g id="edge3" class="edge">
<title>zl&#45;&gt;tz</title>
<path fill="none" stroke="#009900" d="M225.73,-508.21C240.67,-498 261.63,-483.67 278.35,-472.25"/>
<polygon fill="#009900" stroke="#009900" points="280.37,-475.11 286.65,-466.57 276.42,-469.33 280.37,-475.11"/>
</g>
<!-- lh -->
<g id="node3" class="node">
<title>lh</title>
<ellipse fill="#e7e75f" stroke="#e7e75f" cx="640.23" cy="-385.15" rx="27" ry="18"/>
<text text-anchor="middle" x="640.23" y="-381.45" font-family="Times,serif" font-size="14.00" fill="#0f0f23">lh</text>
</g>
<!-- nr -->
<g id="node46" class="node">
<title>nr</title>
<ellipse fill="#e7e75f" stroke="#e7e75f" cx="599.61" cy="-544.43" rx="27" ry="18"/>
<text text-anchor="middle" x="599.61" y="-540.73" font-family="Times,serif" font-size="14.00" fill="#0f0f23">nr</text>
</g>
<!-- lh&#45;&gt;nr -->
<g id="edge5" class="edge">
<title>lh&#45;&gt;nr</title>
<path fill="none" stroke="#009900" d="M635.65,-403.11C628.61,-430.71 615.07,-483.79 606.74,-516.46"/>
<polygon fill="#009900" stroke="#009900" points="603.31,-515.74 604.23,-526.29 610.1,-517.47 603.31,-515.74"/>
</g>
<!-- hx -->
<g id="node4" class="node">
<title>hx</title>
<ellipse fill="#55aa55" stroke="#55aa55" cx="267.05" cy="-341.49" rx="27" ry="18"/>
<text text-anchor="middle" x="267.05" y="-337.79" font-family="Times,serif" font-size="14.00" fill="#ffffff">hx</text>
</g>
<!-- hx&#45;&gt;tz -->
<g id="edge7" class="edge">
<title>hx&#45;&gt;tz</title>
<path fill="none" stroke="#009900" d="M273.17,-359.25C279.39,-377.28 289.1,-405.45 296.29,-426.31"/>
<polygon fill="#009900" stroke="#009900" points="293.03,-427.57 299.59,-435.88 299.64,-425.29 293.03,-427.57"/>
</g>
<!-- jx -->
<g id="node21" class="node">
<title>jx</title>
<ellipse fill="#55aa55" stroke="#55aa55" cx="219.77" cy="-374.36" rx="27" ry="18"/>
<text text-anchor="middle" x="219.77" y="-370.66" font-family="Times,serif" font-size="14.00" fill="#ffffff">jx</text>
</g>
<!-- hx&#45;&gt;jx -->
<g id="edge6" class="edge">
<title>hx&#45;&gt;jx</title>
<path fill="none" stroke="#009900" d="M248.09,-354.67C247.8,-354.87 247.51,-355.07 247.22,-355.27"/>
<polygon fill="#009900" stroke="#009900" points="244.95,-352.59 238.73,-361.18 248.94,-358.34 244.95,-352.59"/>
</g>
<!-- cm&#45;&gt;tz -->
<g id="edge8" class="edge">
<title>cm&#45;&gt;tz</title>
<path fill="none" stroke="#009900" d="M277.07,-514.75C281.83,-504.57 287.93,-491.52 293.28,-480.09"/>
<polygon fill="#009900" stroke="#009900" points="296.48,-481.5 297.55,-470.96 290.14,-478.54 296.48,-481.5"/>
</g>
<!-- ls -->
<g id="node43" class="node">
<title>ls</title>
<ellipse fill="#55aa55" stroke="#55aa55" cx="267.17" cy="-494.33" rx="27" ry="18"/>
<text text-anchor="middle" x="267.17" y="-490.63" font-family="Times,serif" font-size="14.00" fill="#ffffff">ls</text>
</g>
<!-- cm&#45;&gt;ls -->
<g id="edge9" class="edge">
<title>cm&#45;&gt;ls</title>
<path fill="none" stroke="#009900" d="M268.08,-514.15C268.07,-514 268.06,-513.85 268.06,-513.7"/>
<polygon fill="#009900" stroke="#009900" points="271.95,-522.15 267.99,-512.32 264.96,-522.47 271.95,-522.15"/>
</g>
<!-- fk -->
<g id="node6" class="node">
<title>fk</title>
<ellipse fill="#e7e75f" stroke="#e7e75f" cx="447.42" cy="-492.71" rx="27" ry="18"/>
<text text-anchor="middle" x="447.42" y="-489.01" font-family="Times,serif" font-size="14.00" fill="#0f0f23">fk</text>
</g>
<!-- fk&#45;&gt;nr -->
<g id="edge10" class="edge">
<title>fk&#45;&gt;nr</title>
<path fill="none" stroke="#009900" d="M471.53,-500.9C496.95,-509.54 537.19,-523.22 565.77,-532.93"/>
<polygon fill="#009900" stroke="#009900" points="564.76,-536.29 575.35,-536.19 567.01,-529.66 564.76,-536.29"/>
</g>
<!-- gz -->
<g id="node7" class="node">
<title>gz</title>
<ellipse fill="#55aa55" stroke="#55aa55" cx="626" cy="-145.74" rx="27" ry="18"/>
<text text-anchor="middle" x="626" y="-142.04" font-family="Times,serif" font-size="14.00" fill="#ffffff">gz</text>
</g>
<!-- gz&#45;&gt;mq -->
<g id="edge15" class="edge">
<title>gz&#45;&gt;mq</title>
<path fill="none" stroke="#009900" d="M637.46,-162.21C648.51,-178.08 665.38,-202.32 678.08,-220.55"/>
<polygon fill="#009900" stroke="#009900" points="675.34,-222.75 683.93,-228.96 681.09,-218.75 675.34,-222.75"/>
</g>
<!-- lq -->
<g id="node47" class="node">
<title>lq</title>
<ellipse fill="#55aa55" stroke="#55aa55" cx="677.36" cy="-125.75" rx="27" ry="18"/>
<text text-anchor="middle" x="677.36" y="-122.05" font-family="Times,serif" font-size="14.00" fill="#ffffff">lq</text>
</g>
<!-- gz&#45;&gt;lq -->
<g id="edge16" class="edge">
<title>gz&#45;&gt;lq</title>
<path fill="none" stroke="#009900" d="M649.58,-136.57C649.67,-136.53 649.76,-136.49 649.85,-136.46"/>
<polygon fill="#009900" stroke="#009900" points="645.97,-141.73 654.02,-134.84 643.43,-135.2 645.97,-141.73"/>
</g>
<!-- gb -->
<g id="node8" class="node">
<title>gb</title>
<ellipse fill="#55aa55" stroke="#55aa55" cx="854.28" cy="-640.24" rx="27" ry="18"/>
<text text-anchor="middle" x="854.28" y="-636.54" font-family="Times,serif" font-size="14.00" fill="#ffffff">gb</text>
</g>
<!-- kr -->
<g id="node26" class="node">
<title>kr</title>
<ellipse fill="#55aa55" stroke="#55aa55" cx="886.55" cy="-567.27" rx="27" ry="18"/>
<text text-anchor="middle" x="886.55" y="-563.57" font-family="Times,serif" font-size="14.00" fill="#ffffff">kr</text>
</g>
<!-- gb&#45;&gt;kr -->
<g id="edge18" class="edge">
<title>gb&#45;&gt;kr</title>
<path fill="none" stroke="#009900" d="M861.93,-622.95C865.76,-614.29 870.48,-603.61 874.76,-593.93"/>
<polygon fill="#009900" stroke="#009900" points="878,-595.25 878.85,-584.69 871.6,-592.42 878,-595.25"/>
</g>
<!-- xf -->
<g id="node56" class="node">
<title>xf</title>
<ellipse fill="#e7e75f" stroke="#e7e75f" cx="892.96" cy="-638.54" rx="27" ry="18"/>
<text text-anchor="middle" x="892.96" y="-634.84" font-family="Times,serif" font-size="14.00" fill="#0f0f23">xf</text>
</g>
<!-- gb&#45;&gt;xf -->
<g id="edge17" class="edge">
<title>gb&#45;&gt;xf</title>
<path fill="none" stroke="#009900" d="M881.56,-639.04C881.61,-639.04 881.66,-639.04 881.71,-639.03"/>
<polygon fill="#009900" stroke="#009900" points="872.03,-642.97 881.86,-639.03 871.72,-635.98 872.03,-642.97"/>
</g>
<!-- zc -->
<g id="node9" class="node">
<title>zc</title>
<ellipse fill="#55aa55" stroke="#55aa55" cx="439.38" cy="-882.09" rx="27" ry="18"/>
<text text-anchor="middle" x="439.38" y="-878.39" font-family="Times,serif" font-size="14.00" fill="#ffffff">zc</text>
</g>
<!-- rq -->
<g id="node17" class="node">
<title>rq</title>
<ellipse fill="#55aa55" stroke="#55aa55" cx="485.7" cy="-828.4" rx="27" ry="18"/>
<text text-anchor="middle" x="485.7" y="-824.7" font-family="Times,serif" font-size="14.00" fill="#ffffff">rq</text>
</g>
<!-- zc&#45;&gt;rq -->
<g id="edge19" class="edge">
<title>zc&#45;&gt;rq</title>
<path fill="none" stroke="#009900" d="M453.02,-866.27C456.85,-861.83 461.1,-856.91 465.24,-852.12"/>
<polygon fill="#009900" stroke="#009900" points="468.1,-854.15 471.99,-844.29 462.8,-849.58 468.1,-854.15"/>
</g>
<!-- ln -->
<g id="node10" class="node">
<title>ln</title>
<ellipse fill="#55aa55" stroke="#55aa55" cx="942.22" cy="-544.51" rx="27" ry="18"/>
<text text-anchor="middle" x="942.22" y="-540.81" font-family="Times,serif" font-size="14.00" fill="#ffffff">ln</text>
</g>
<!-- qj -->
<g id="node55" class="node">
<title>qj</title>
<ellipse fill="#55aa55" stroke="#55aa55" cx="990.21" cy="-561.35" rx="27" ry="18"/>
<text text-anchor="middle" x="990.21" y="-557.65" font-family="Times,serif" font-size="14.00" fill="#ffffff">qj</text>
</g>
<!-- ln&#45;&gt;qj -->
<g id="edge20" class="edge">
<title>ln&#45;&gt;qj</title>
<path fill="none" stroke="#009900" d="M966.22,-552.93C966.26,-552.95 966.31,-552.96 966.36,-552.98"/>
<polygon fill="#009900" stroke="#009900" points="955.9,-553.01 966.5,-553.03 958.22,-546.41 955.9,-553.01"/>
</g>
<!-- ln&#45;&gt;xf -->
<g id="edge21" class="edge">
<title>ln&#45;&gt;xf</title>
<path fill="none" stroke="#009900" d="M933.18,-561.76C925.75,-575.94 915.11,-596.26 906.63,-612.43"/>
<polygon fill="#009900" stroke="#009900" points="903.48,-610.92 901.94,-621.4 909.68,-614.17 903.48,-610.92"/>
</g>
<!-- gq -->
<g id="node11" class="node">
<title>gq</title>
<ellipse fill="#55aa55" stroke="#55aa55" cx="764.4" cy="-275.44" rx="27" ry="18"/>
<text text-anchor="middle" x="764.4" y="-271.74" font-family="Times,serif" font-size="14.00" fill="#ffffff">gq</text>
</g>
<!-- pp -->
<g id="node50" class="node">
<title>pp</title>
<ellipse fill="#55aa55" stroke="#55aa55" cx="740.88" cy="-215.94" rx="27" ry="18"/>
<text text-anchor="middle" x="740.88" y="-212.24" font-family="Times,serif" font-size="14.00" fill="#ffffff">pp</text>
</g>
<!-- gq&#45;&gt;pp -->
<g id="edge22" class="edge">
<title>gq&#45;&gt;pp</title>
<path fill="none" stroke="#009900" d="M757.47,-257.91C755.62,-253.23 753.58,-248.06 751.58,-243"/>
<polygon fill="#009900" stroke="#009900" points="754.77,-241.56 747.84,-233.55 748.26,-244.14 754.77,-241.56"/>
</g>
<!-- fb -->
<g id="node12" class="node">
<title>fb</title>
<ellipse fill="#55aa55" stroke="#55aa55" cx="953.53" cy="-614.85" rx="27" ry="18"/>
<text text-anchor="middle" x="953.53" y="-611.15" font-family="Times,serif" font-size="14.00" fill="#ffffff">fb</text>
</g>
<!-- fb&#45;&gt;xf -->
<g id="edge23" class="edge">
<title>fb&#45;&gt;xf</title>
<path fill="none" stroke="#009900" d="M929.94,-624.07C928.7,-624.56 927.45,-625.04 926.2,-625.54"/>
<polygon fill="#009900" stroke="#009900" points="924.62,-622.39 916.59,-629.3 927.17,-628.91 924.62,-622.39"/>
</g>
<!-- pf -->
<g id="node13" class="node">
<title>pf</title>
<ellipse fill="#55aa55" stroke="#55aa55" cx="524.17" cy="-990.69" rx="27" ry="18"/>
<text text-anchor="middle" x="524.17" y="-986.99" font-family="Times,serif" font-size="14.00" fill="#ffffff">pf</text>
</g>
<!-- tg -->
<g id="node22" class="node">
<title>tg</title>
<ellipse fill="#e7e75f" stroke="#e7e75f" cx="496.84" cy="-854.48" rx="27" ry="18"/>
<text text-anchor="middle" x="496.84" y="-850.78" font-family="Times,serif" font-size="14.00" fill="#0f0f23">tg</text>
</g>
<!-- pf&#45;&gt;tg -->
<g id="edge24" class="edge">
<title>pf&#45;&gt;tg</title>
<path fill="none" stroke="#009900" d="M525.29,-972.52C523.09,-949.29 515.3,-908.89 508.07,-881.92"/>
<polygon fill="#009900" stroke="#009900" points="511.34,-880.61 505.23,-871.95 504.61,-882.53 511.34,-880.61"/>
</g>
<!-- nv -->
<g id="node24" class="node">
<title>nv</title>
<ellipse fill="#55aa55" stroke="#55aa55" cx="485.25" cy="-971.12" rx="27" ry="18"/>
<text text-anchor="middle" x="485.25" y="-967.42" font-family="Times,serif" font-size="14.00" fill="#ffffff">nv</text>
</g>
<!-- pf&#45;&gt;nv -->
<g id="edge25" class="edge">
<title>pf&#45;&gt;nv</title>
<path fill="none" stroke="#009900" d="M502.44,-979.76C502.37,-979.73 502.3,-979.69 502.23,-979.66"/>
<polygon fill="#009900" stroke="#009900" points="512.53,-980.92 502.02,-979.55 509.38,-987.17 512.53,-980.92"/>
</g>
<!-- bc -->
<g id="node14" class="node">
<title>bc</title>
<ellipse fill="#55aa55" stroke="#55aa55" cx="406.44" cy="-888.09" rx="27" ry="18"/>
<text text-anchor="middle" x="406.44" y="-884.39" font-family="Times,serif" font-size="14.00" fill="#ffffff">bc</text>
</g>
<!-- cf -->
<g id="node54" class="node">
<title>cf</title>
<ellipse fill="#55aa55" stroke="#55aa55" cx="420.21" cy="-837.25" rx="27" ry="18"/>
<text text-anchor="middle" x="420.21" y="-833.55" font-family="Times,serif" font-size="14.00" fill="#ffffff">cf</text>
</g>
<!-- bc&#45;&gt;cf -->
<g id="edge26" class="edge">
<title>bc&#45;&gt;cf</title>
<path fill="none" stroke="#009900" d="M411.26,-870.31C411.71,-868.62 412.19,-866.87 412.66,-865.11"/>
<polygon fill="#009900" stroke="#009900" points="416.14,-865.67 415.37,-855.11 409.38,-863.84 416.14,-865.67"/>
</g>
<!-- tz&#45;&gt;fk -->
<g id="edge28" class="edge">
<title>tz&#45;&gt;fk</title>
<path fill="none" stroke="#009900" d="M330.7,-460.47C353.33,-466.72 386.89,-475.99 412.23,-482.99"/>
<polygon fill="#009900" stroke="#009900" points="411.61,-486.45 422.18,-485.74 413.47,-479.7 411.61,-486.45"/>
</g>
<!-- tz&#45;&gt;ls -->
<g id="edge29" class="edge">
<title>tz&#45;&gt;ls</title>
<path fill="none" stroke="#009900" d="M290.91,-469.21C290.14,-470.01 289.37,-470.83 288.59,-471.66"/>
<polygon fill="#009900" stroke="#009900" points="285.92,-469.39 281.6,-479.06 291.01,-474.2 285.92,-469.39"/>
</g>
<!-- cn -->
<g id="node49" class="node">
<title>cn</title>
<ellipse fill="#55aa55" stroke="#55aa55" cx="161.13" cy="-422.09" rx="27" ry="18"/>
<text text-anchor="middle" x="161.13" y="-418.39" font-family="Times,serif" font-size="14.00" fill="#ffffff">cn</text>
</g>
<!-- tz&#45;&gt;cn -->
<g id="edge27" class="edge">
<title>tz&#45;&gt;cn</title>
<path fill="none" stroke="#009900" d="M283.23,-443.41C260.6,-436.6 225.28,-428.64 198.44,-424.14"/>
<polygon fill="#009900" stroke="#009900" points="198.67,-420.64 188.25,-422.54 197.58,-427.55 198.67,-420.64"/>
</g>
<!-- cq -->
<g id="node16" class="node">
<title>cq</title>
<ellipse fill="#55aa55" stroke="#55aa55" cx="980.22" cy="-679.5" rx="27" ry="18"/>
<text text-anchor="middle" x="980.22" y="-675.8" font-family="Times,serif" font-size="14.00" fill="#ffffff">cq</text>
</g>
<!-- cq&#45;&gt;fb -->
<g id="edge30" class="edge">
<title>cq&#45;&gt;fb</title>
<path fill="none" stroke="#009900" d="M972.92,-661.83C970.39,-655.7 967.5,-648.68 964.72,-641.97"/>
<polygon fill="#009900" stroke="#009900" points="967.86,-640.4 960.81,-632.49 961.39,-643.07 967.86,-640.4"/>
</g>
<!-- cq&#45;&gt;xf -->
<g id="edge31" class="edge">
<title>cq&#45;&gt;xf</title>
<path fill="none" stroke="#009900" d="M957.75,-668.95C947.59,-664.18 935.42,-658.47 924.38,-653.29"/>
<polygon fill="#009900" stroke="#009900" points="925.59,-649.99 915.05,-648.91 922.62,-656.33 925.59,-649.99"/>
</g>
<!-- rq&#45;&gt;tg -->
<g id="edge32" class="edge">
<title>rq&#45;&gt;tg</title>
<path fill="none" stroke="#009900" d="M493.19,-845.94C493.22,-846.02 493.25,-846.09 493.29,-846.16"/>
<polygon fill="#009900" stroke="#009900" points="486.23,-838.56 493.38,-846.38 492.67,-835.81 486.23,-838.56"/>
</g>
<!-- dx -->
<g id="node31" class="node">
<title>dx</title>
<ellipse fill="#55aa55" stroke="#55aa55" cx="566.1" cy="-859.59" rx="27" ry="18"/>
<text text-anchor="middle" x="566.1" y="-855.89" font-family="Times,serif" font-size="14.00" fill="#ffffff">dx</text>
</g>
<!-- rq&#45;&gt;dx -->
<g id="edge33" class="edge">
<title>rq&#45;&gt;dx</title>
<path fill="none" stroke="#009900" d="M509.38,-837.59C516.83,-840.48 525.18,-843.72 533.15,-846.81"/>
<polygon fill="#009900" stroke="#009900" points="531.99,-850.11 542.58,-850.47 534.52,-843.59 531.99,-850.11"/>
</g>
<!-- km -->
<g id="node18" class="node">
<title>km</title>
<ellipse fill="#55aa55" stroke="#55aa55" cx="802.06" cy="-247.93" rx="27" ry="18"/>
<text text-anchor="middle" x="802.06" y="-244.23" font-family="Times,serif" font-size="14.00" fill="#ffffff">km</text>
</g>
<!-- km&#45;&gt;gq -->
<g id="edge34" class="edge">
<title>km&#45;&gt;gq</title>
<path fill="none" stroke="#009900" d="M783.67,-261.36C783.52,-261.47 783.37,-261.58 783.22,-261.69"/>
<polygon fill="#009900" stroke="#009900" points="788.78,-253.29 782.77,-262.01 792.91,-258.94 788.78,-253.29"/>
</g>
<!-- mq&#45;&gt;lh -->
<g id="edge39" class="edge">
<title>mq&#45;&gt;lh</title>
<path fill="none" stroke="#009900" d="M688.53,-262.85C679.11,-286.7 662.11,-329.75 651,-357.89"/>
<polygon fill="#009900" stroke="#009900" points="647.61,-356.93 647.19,-367.52 654.12,-359.5 647.61,-356.93"/>
</g>
<!-- mq&#45;&gt;gq -->
<g id="edge35" class="edge">
<title>mq&#45;&gt;gq</title>
<path fill="none" stroke="#009900" d="M718.38,-255.43C722.85,-257.37 727.61,-259.44 732.31,-261.49"/>
<polygon fill="#009900" stroke="#009900" points="731.19,-264.82 741.76,-265.6 733.98,-258.4 731.19,-264.82"/>
</g>
<!-- mq&#45;&gt;km -->
<g id="edge38" class="edge">
<title>mq&#45;&gt;km</title>
<path fill="none" stroke="#009900" d="M722.59,-246.08C735.38,-246.37 750.83,-246.73 764.69,-247.06"/>
<polygon fill="#009900" stroke="#009900" points="764.84,-250.56 774.92,-247.29 765,-243.56 764.84,-250.56"/>
</g>
<!-- mq&#45;&gt;xn -->
<g id="edge36" class="edge">
<title>mq&#45;&gt;xn</title>
<path fill="none" stroke="#009900" d="M696.81,-227.17C697.11,-223.27 697.43,-219.05 697.75,-214.87"/>
<polygon fill="#009900" stroke="#009900" points="701.25,-214.98 698.53,-204.74 694.27,-214.44 701.25,-214.98"/>
</g>
<!-- sj -->
<g id="node38" class="node">
<title>sj</title>
<ellipse fill="#55aa55" stroke="#55aa55" cx="742.66" cy="-117.63" rx="27" ry="18"/>
<text text-anchor="middle" x="742.66" y="-113.93" font-family="Times,serif" font-size="14.00" fill="#ffffff">sj</text>
</g>
<!-- mq&#45;&gt;sj -->
<g id="edge41" class="edge">
<title>mq&#45;&gt;sj</title>
<path fill="none" stroke="#009900" d="M706.77,-228.83C716.93,-207.76 730.69,-171.17 738.21,-145.73"/>
<polygon fill="#009900" stroke="#009900" points="741.63,-146.49 740.94,-135.92 734.89,-144.61 741.63,-146.49"/>
</g>
<!-- fv -->
<g id="node45" class="node">
<title>fv</title>
<ellipse fill="#55aa55" stroke="#55aa55" cx="782.96" cy="-175.16" rx="27" ry="18"/>
<text text-anchor="middle" x="782.96" y="-171.46" font-family="Times,serif" font-size="14.00" fill="#ffffff">fv</text>
</g>
<!-- mq&#45;&gt;fv -->
<g id="edge37" class="edge">
<title>mq&#45;&gt;fv</title>
<path fill="none" stroke="#009900" d="M712.7,-231.56C725.53,-221.26 743.22,-207.05 757.64,-195.48"/>
<polygon fill="#009900" stroke="#009900" points="760.09,-198 765.69,-189.01 755.71,-192.54 760.09,-198"/>
</g>
<!-- xv -->
<g id="node48" class="node">
<title>xv</title>
<ellipse fill="#55aa55" stroke="#55aa55" cx="608.88" cy="-227.91" rx="27" ry="18"/>
<text text-anchor="middle" x="608.88" y="-224.21" font-family="Times,serif" font-size="14.00" fill="#ffffff">xv</text>
</g>
<!-- mq&#45;&gt;xv -->
<g id="edge40" class="edge">
<title>mq&#45;&gt;xv</title>
<path fill="none" stroke="#009900" d="M669.45,-240.18C661.66,-238.61 652.98,-236.85 644.68,-235.17"/>
<polygon fill="#009900" stroke="#009900" points="645.32,-231.73 634.82,-233.17 643.93,-238.59 645.32,-231.73"/>
</g>
<!-- zp -->
<g id="node20" class="node">
<title>zp</title>
<ellipse fill="#55aa55" stroke="#55aa55" cx="644.4" cy="-167.49" rx="27" ry="18"/>
<text text-anchor="middle" x="644.4" y="-163.79" font-family="Times,serif" font-size="14.00" fill="#ffffff">zp</text>
</g>
<!-- zp&#45;&gt;mq -->
<g id="edge42" class="edge">
<title>zp&#45;&gt;mq</title>
<path fill="none" stroke="#009900" d="M655.22,-184.02C662.12,-194.56 671.19,-208.43 678.97,-220.32"/>
<polygon fill="#009900" stroke="#009900" points="676.2,-222.48 684.6,-228.94 682.06,-218.65 676.2,-222.48"/>
</g>
<!-- zp&#45;&gt;xv -->
<g id="edge43" class="edge">
<title>zp&#45;&gt;xv</title>
<path fill="none" stroke="#009900" d="M634.51,-184.32C631.33,-189.73 627.73,-195.86 624.25,-201.77"/>
<polygon fill="#009900" stroke="#009900" points="621.02,-200.36 618.97,-210.75 627.06,-203.91 621.02,-200.36"/>
</g>
<!-- jx&#45;&gt;tz -->
<g id="edge44" class="edge">
<title>jx&#45;&gt;tz</title>
<path fill="none" stroke="#009900" d="M235.93,-389.25C248.89,-401.2 267.27,-418.14 281.91,-431.64"/>
<polygon fill="#009900" stroke="#009900" points="279.88,-434.52 289.6,-438.73 284.62,-429.38 279.88,-434.52"/>
</g>
<!-- np -->
<g id="node57" class="node">
<title>np</title>
<ellipse fill="#55aa55" stroke="#55aa55" cx="197.63" cy="-407.96" rx="27" ry="18"/>
<text text-anchor="middle" x="197.63" y="-404.26" font-family="Times,serif" font-size="14.00" fill="#ffffff">np</text>
</g>
<!-- jx&#45;&gt;np -->
<g id="edge45" class="edge">
<title>jx&#45;&gt;np</title>
<path fill="none" stroke="#009900" d="M208.7,-391.16C208.66,-391.22 208.61,-391.29 208.57,-391.35"/>
<polygon fill="#009900" stroke="#009900" points="211.02,-381.27 208.44,-391.55 216.87,-385.13 211.02,-381.27"/>
</g>
<!-- tg&#45;&gt;zc -->
<g id="edge48" class="edge">
<title>tg&#45;&gt;zc</title>
<path fill="none" stroke="#009900" d="M474.79,-865.08C473.44,-865.73 472.08,-866.38 470.7,-867.04"/>
<polygon fill="#009900" stroke="#009900" points="469.15,-863.9 461.65,-871.39 472.18,-870.21 469.15,-863.9"/>
</g>
<!-- tg&#45;&gt;pf -->
<g id="edge49" class="edge">
<title>tg&#45;&gt;pf</title>
<path fill="none" stroke="#009900" d="M495.72,-872.65C497.92,-895.88 505.71,-936.28 512.94,-963.26"/>
<polygon fill="#009900" stroke="#009900" points="509.67,-964.56 515.77,-973.22 516.4,-962.64 509.67,-964.56"/>
</g>
<!-- tg&#45;&gt;bc -->
<g id="edge50" class="edge">
<title>tg&#45;&gt;bc</title>
<path fill="none" stroke="#009900" d="M473.09,-863.31C462.81,-867.13 450.61,-871.67 439.47,-875.81"/>
<polygon fill="#009900" stroke="#009900" points="438.19,-872.55 430.03,-879.32 440.63,-879.12 438.19,-872.55"/>
</g>
<!-- mm -->
<g id="node40" class="node">
<title>mm</title>
<ellipse fill="#e7e75f" stroke="#e7e75f" cx="554.99" cy="-697.52" rx="27" ry="18"/>
<text text-anchor="middle" x="554.99" y="-693.82" font-family="Times,serif" font-size="14.00" fill="#0f0f23">mm</text>
</g>
<!-- tg&#45;&gt;mm -->
<g id="edge46" class="edge">
<title>tg&#45;&gt;mm</title>
<path fill="none" stroke="#009900" d="M503.4,-836.78C513.48,-809.58 532.85,-757.28 544.78,-725.08"/>
<polygon fill="#009900" stroke="#009900" points="548.18,-725.99 548.37,-715.39 541.61,-723.55 548.18,-725.99"/>
</g>
<!-- rp -->
<g id="node41" class="node">
<title>rp</title>
<ellipse fill="#55aa55" stroke="#55aa55" cx="427.49" cy="-933.88" rx="27" ry="18"/>
<text text-anchor="middle" x="427.49" y="-930.18" font-family="Times,serif" font-size="14.00" fill="#ffffff">rp</text>
</g>
<!-- tg&#45;&gt;rp -->
<g id="edge47" class="edge">
<title>tg&#45;&gt;rp</title>
<path fill="none" stroke="#009900" d="M483.14,-870.17C473.07,-881.7 459.22,-897.55 447.86,-910.56"/>
<polygon fill="#009900" stroke="#009900" points="445.11,-908.4 441.16,-918.23 450.38,-913 445.11,-908.4"/>
</g>
<!-- cv -->
<g id="node23" class="node">
<title>cv</title>
<ellipse fill="#55aa55" stroke="#55aa55" cx="917.87" cy="-729.25" rx="27" ry="18"/>
<text text-anchor="middle" x="917.87" y="-725.55" font-family="Times,serif" font-size="14.00" fill="#ffffff">cv</text>
</g>
<!-- sq -->
<g id="node25" class="node">
<title>sq</title>
<ellipse fill="#55aa55" stroke="#55aa55" cx="872.63" cy="-700.5" rx="27" ry="18"/>
<text text-anchor="middle" x="872.63" y="-696.8" font-family="Times,serif" font-size="14.00" fill="#ffffff">sq</text>
</g>
<!-- cv&#45;&gt;sq -->
<g id="edge51" class="edge">
<title>cv&#45;&gt;sq</title>
<path fill="none" stroke="#009900" d="M898.16,-716.72C898.04,-716.65 897.92,-716.57 897.8,-716.49"/>
<polygon fill="#009900" stroke="#009900" points="902.73,-715.48 892.41,-713.07 898.98,-721.39 902.73,-715.48"/>
</g>
<!-- cv&#45;&gt;xf -->
<g id="edge52" class="edge">
<title>cv&#45;&gt;xf</title>
<path fill="none" stroke="#009900" d="M912.94,-711.32C909.43,-698.53 904.64,-681.07 900.62,-666.45"/>
<polygon fill="#009900" stroke="#009900" points="903.89,-665.14 897.87,-656.42 897.14,-666.99 903.89,-665.14"/>
</g>
<!-- nv&#45;&gt;tg -->
<g id="edge54" class="edge">
<title>nv&#45;&gt;tg</title>
<path fill="none" stroke="#009900" d="M487.04,-953.15C488.9,-934.37 491.86,-904.64 494.04,-882.72"/>
<polygon fill="#009900" stroke="#009900" points="497.53,-882.96 495.03,-872.67 490.56,-882.27 497.53,-882.96"/>
</g>
<!-- ht -->
<g id="node35" class="node">
<title>ht</title>
<ellipse fill="#55aa55" stroke="#55aa55" cx="537.45" cy="-952.21" rx="27" ry="18"/>
<text text-anchor="middle" x="537.45" y="-948.51" font-family="Times,serif" font-size="14.00" fill="#ffffff">ht</text>
</g>
<!-- nv&#45;&gt;ht -->
<g id="edge53" class="edge">
<title>nv&#45;&gt;ht</title>
<path fill="none" stroke="#009900" d="M509.22,-962.44C509.31,-962.41 509.4,-962.37 509.5,-962.34"/>
<polygon fill="#009900" stroke="#009900" points="505.52,-967.5 513.73,-960.81 503.13,-960.92 505.52,-967.5"/>
</g>
<!-- sq&#45;&gt;gb -->
<g id="edge55" class="edge">
<title>sq&#45;&gt;gb</title>
<path fill="none" stroke="#009900" d="M867.22,-682.75C865.78,-678.01 864.19,-672.77 862.62,-667.65"/>
<polygon fill="#009900" stroke="#009900" points="865.97,-666.62 859.71,-658.08 859.27,-668.66 865.97,-666.62"/>
</g>
<!-- kr&#45;&gt;ln -->
<g id="edge56" class="edge">
<title>kr&#45;&gt;ln</title>
<path fill="none" stroke="#009900" d="M909.84,-557.75C909.93,-557.71 910.03,-557.67 910.12,-557.64"/>
<polygon fill="#009900" stroke="#009900" points="910.92,-561.09 918.85,-554.07 908.27,-554.61 910.92,-561.09"/>
</g>
<!-- dk -->
<g id="node27" class="node">
<title>dk</title>
<ellipse fill="#55aa55" stroke="#55aa55" cx="966.78" cy="-721.74" rx="27" ry="18"/>
<text text-anchor="middle" x="966.78" y="-718.04" font-family="Times,serif" font-size="14.00" fill="#ffffff">dk</text>
</g>
<!-- dk&#45;&gt;cv -->
<g id="edge57" class="edge">
<title>dk&#45;&gt;cv</title>
<path fill="none" stroke="#009900" d="M940.32,-725.8C940.28,-725.81 940.23,-725.81 940.19,-725.82"/>
<polygon fill="#009900" stroke="#009900" points="949.4,-720.86 940.05,-725.84 950.47,-727.78 949.4,-720.86"/>
</g>
<!-- xn&#45;&gt;zp -->
<g id="edge58" class="edge">
<title>xn&#45;&gt;zp</title>
<path fill="none" stroke="#009900" d="M675.73,-178.32C675.58,-178.27 675.44,-178.22 675.29,-178.17"/>
<polygon fill="#009900" stroke="#009900" points="679.28,-175.84 668.68,-175.88 676.99,-182.46 679.28,-175.84"/>
</g>
<!-- sx -->
<g id="node29" class="node">
<title>sx</title>
<ellipse fill="#55aa55" stroke="#55aa55" cx="1017.88" cy="-641.45" rx="27" ry="18"/>
<text text-anchor="middle" x="1017.88" y="-637.75" font-family="Times,serif" font-size="14.00" fill="#ffffff">sx</text>
</g>
<!-- sx&#45;&gt;cq -->
<g id="edge60" class="edge">
<title>sx&#45;&gt;cq</title>
<path fill="none" stroke="#009900" d="M1003,-656.49C1002.84,-656.65 1002.68,-656.81 1002.52,-656.97"/>
<polygon fill="#009900" stroke="#009900" points="999.79,-654.75 995.24,-664.32 1004.76,-659.68 999.79,-654.75"/>
</g>
<!-- sx&#45;&gt;xf -->
<g id="edge59" class="edge">
<title>sx&#45;&gt;xf</title>
<path fill="none" stroke="#009900" d="M990.77,-640.82C973.01,-640.4 949.56,-639.86 930.08,-639.4"/>
<polygon fill="#009900" stroke="#009900" points="930.09,-635.9 920.01,-639.17 929.93,-642.9 930.09,-635.9"/>
</g>
<!-- zt -->
<g id="node30" class="node">
<title>zt</title>
<ellipse fill="#55aa55" stroke="#55aa55" cx="281.01" cy="-386.95" rx="27" ry="18"/>
<text text-anchor="middle" x="281.01" y="-383.25" font-family="Times,serif" font-size="14.00" fill="#ffffff">zt</text>
</g>
<!-- zt&#45;&gt;tz -->
<g id="edge61" class="edge">
<title>zt&#45;&gt;tz</title>
<path fill="none" stroke="#009900" d="M287.49,-404.45C289.99,-411.21 292.92,-419.09 295.68,-426.54"/>
<polygon fill="#009900" stroke="#009900" points="292.4,-427.78 299.16,-435.94 298.97,-425.35 292.4,-427.78"/>
</g>
<!-- fq -->
<g id="node36" class="node">
<title>fq</title>
<ellipse fill="#55aa55" stroke="#55aa55" cx="322.22" cy="-376.48" rx="27" ry="18"/>
<text text-anchor="middle" x="322.22" y="-372.78" font-family="Times,serif" font-size="14.00" fill="#ffffff">fq</text>
</g>
<!-- zt&#45;&gt;fq -->
<g id="edge62" class="edge">
<title>zt&#45;&gt;fq</title>
<path fill="none" stroke="#009900" d="M306.4,-380.5C306.47,-380.48 306.54,-380.47 306.6,-380.45"/>
<polygon fill="#009900" stroke="#009900" points="297.97,-386.26 306.8,-380.4 296.24,-379.47 297.97,-386.26"/>
</g>
<!-- dx&#45;&gt;tg -->
<g id="edge63" class="edge">
<title>dx&#45;&gt;tg</title>
<path fill="none" stroke="#009900" d="M539.12,-857.6C537.4,-857.48 535.65,-857.35 533.89,-857.22"/>
<polygon fill="#009900" stroke="#009900" points="534.09,-853.72 523.86,-856.48 533.57,-860.7 534.09,-853.72"/>
</g>
<!-- qn -->
<g id="node52" class="node">
<title>qn</title>
<ellipse fill="#55aa55" stroke="#55aa55" cx="579.73" cy="-925.22" rx="27" ry="18"/>
<text text-anchor="middle" x="579.73" y="-921.52" font-family="Times,serif" font-size="14.00" fill="#ffffff">qn</text>
</g>
<!-- dx&#45;&gt;qn -->
<g id="edge64" class="edge">
<title>dx&#45;&gt;qn</title>
<path fill="none" stroke="#009900" d="M569.82,-877.53C571.08,-883.6 572.53,-890.54 573.91,-897.22"/>
<polygon fill="#009900" stroke="#009900" points="570.55,-898.23 576.01,-907.31 577.4,-896.81 570.55,-898.23"/>
</g>
<!-- ff -->
<g id="node32" class="node">
<title>ff</title>
<ellipse fill="#e7e75f" stroke="#e7e75f" cx="738.44" cy="-585.58" rx="27" ry="18"/>
<text text-anchor="middle" x="738.44" y="-581.88" font-family="Times,serif" font-size="14.00" fill="#0f0f23">ff</text>
</g>
<!-- ff&#45;&gt;nr -->
<g id="edge65" class="edge">
<title>ff&#45;&gt;nr</title>
<path fill="none" stroke="#009900" d="M713.62,-578.22C691.55,-571.68 659.04,-562.05 634.38,-554.74"/>
<polygon fill="#009900" stroke="#009900" points="635.26,-551.35 624.68,-551.87 633.27,-558.06 635.26,-551.35"/>
</g>
<!-- bn -->
<g id="node33" class="node">
<title>bn</title>
<ellipse fill="#55aa55" stroke="#55aa55" cx="308.72" cy="-343.41" rx="27" ry="18"/>
<text text-anchor="middle" x="308.72" y="-339.71" font-family="Times,serif" font-size="14.00" fill="#ffffff">bn</text>
</g>
<!-- bn&#45;&gt;hx -->
<g id="edge66" class="edge">
<title>bn&#45;&gt;hx</title>
<path fill="none" stroke="#009900" d="M281.62,-342.16C281.56,-342.16 281.5,-342.16 281.44,-342.15"/>
<polygon fill="#009900" stroke="#009900" points="291.4,-339.11 281.25,-342.15 291.08,-346.11 291.4,-339.11"/>
</g>
<!-- bn&#45;&gt;tz -->
<g id="edge67" class="edge">
<title>bn&#45;&gt;tz</title>
<path fill="none" stroke="#009900" d="M308.22,-361.6C307.74,-378.9 307.02,-405.18 306.47,-425.23"/>
<polygon fill="#009900" stroke="#009900" points="302.96,-425.25 306.19,-435.34 309.96,-425.44 302.96,-425.25"/>
</g>
<!-- fj -->
<g id="node34" class="node">
<title>fj</title>
<ellipse fill="#55aa55" stroke="#55aa55" cx="219.66" cy="-442.99" rx="27" ry="18"/>
<text text-anchor="middle" x="219.66" y="-439.29" font-family="Times,serif" font-size="14.00" fill="#ffffff">fj</text>
</g>
<!-- fj&#45;&gt;tz -->
<g id="edge69" class="edge">
<title>fj&#45;&gt;tz</title>
<path fill="none" stroke="#009900" d="M246.41,-446.27C253.53,-447.15 261.35,-448.11 268.91,-449.04"/>
<polygon fill="#009900" stroke="#009900" points="268.61,-452.53 278.96,-450.27 269.46,-445.58 268.61,-452.53"/>
</g>
<!-- fj&#45;&gt;zt -->
<g id="edge68" class="edge">
<title>fj&#45;&gt;zt</title>
<path fill="none" stroke="#009900" d="M235.78,-428.26C242.35,-422.26 250.08,-415.2 257.27,-408.63"/>
<polygon fill="#009900" stroke="#009900" points="259.76,-411.1 264.79,-401.77 255.04,-405.93 259.76,-411.1"/>
</g>
<!-- ht&#45;&gt;tg -->
<g id="edge71" class="edge">
<title>ht&#45;&gt;tg</title>
<path fill="none" stroke="#009900" d="M530.19,-934.74C524.05,-919.96 515.15,-898.54 508.09,-881.54"/>
<polygon fill="#009900" stroke="#009900" points="511.24,-880.02 504.18,-872.13 504.78,-882.71 511.24,-880.02"/>
</g>
<!-- rr -->
<g id="node53" class="node">
<title>rr</title>
<ellipse fill="#55aa55" stroke="#55aa55" cx="470.62" cy="-943.42" rx="27" ry="18"/>
<text text-anchor="middle" x="470.62" y="-939.72" font-family="Times,serif" font-size="14.00" fill="#ffffff">rr</text>
</g>
<!-- ht&#45;&gt;rr -->
<g id="edge70" class="edge">
<title>ht&#45;&gt;rr</title>
<path fill="none" stroke="#009900" d="M510.66,-948.69C509.57,-948.54 508.47,-948.4 507.36,-948.25"/>
<polygon fill="#009900" stroke="#009900" points="507.8,-944.78 497.43,-946.95 506.89,-951.72 507.8,-944.78"/>
</g>
<!-- fq&#45;&gt;tz -->
<g id="edge72" class="edge">
<title>fq&#45;&gt;tz</title>
<path fill="none" stroke="#009900" d="M318.38,-394.36C316.4,-403.63 313.92,-415.17 311.69,-425.59"/>
<polygon fill="#009900" stroke="#009900" points="308.23,-425 309.56,-435.51 315.08,-426.47 308.23,-425"/>
</g>
<!-- fq&#45;&gt;bn -->
<g id="edge73" class="edge">
<title>fq&#45;&gt;bn</title>
<path fill="none" stroke="#009900" d="M314.99,-358.78C314.97,-358.72 314.94,-358.66 314.92,-358.6"/>
<polygon fill="#009900" stroke="#009900" points="321.87,-366.35 314.84,-358.41 315.38,-369 321.87,-366.35"/>
</g>
<!-- kh -->
<g id="node37" class="node">
<title>kh</title>
<ellipse fill="#55aa55" stroke="#55aa55" cx="1020.26" cy="-694.21" rx="27" ry="18"/>
<text text-anchor="middle" x="1020.26" y="-690.51" font-family="Times,serif" font-size="14.00" fill="#ffffff">kh</text>
</g>
<!-- kh&#45;&gt;dk -->
<g id="edge74" class="edge">
<title>kh&#45;&gt;dk</title>
<path fill="none" stroke="#009900" d="M998.82,-705.25C998.27,-705.53 997.73,-705.81 997.18,-706.09"/>
<polygon fill="#009900" stroke="#009900" points="995.52,-703.01 988.23,-710.7 998.73,-709.23 995.52,-703.01"/>
</g>
<!-- kh&#45;&gt;xf -->
<g id="edge75" class="edge">
<title>kh&#45;&gt;xf</title>
<path fill="none" stroke="#009900" d="M1002.13,-680.73C983.03,-670.36 952.51,-656.68 928.58,-647.56"/>
<polygon fill="#009900" stroke="#009900" points="929.71,-644.24 919.11,-644.07 927.29,-650.81 929.71,-644.24"/>
</g>
<!-- sj&#45;&gt;mq -->
<g id="edge76" class="edge">
<title>sj&#45;&gt;mq</title>
<path fill="none" stroke="#009900" d="M731.29,-134.24C721.14,-155.31 707.37,-191.9 699.86,-217.34"/>
<polygon fill="#009900" stroke="#009900" points="696.43,-216.58 697.13,-227.15 703.18,-218.45 696.43,-216.58"/>
</g>
<!-- sj&#45;&gt;fv -->
<g id="edge77" class="edge">
<title>sj&#45;&gt;fv</title>
<path fill="none" stroke="#009900" d="M754.1,-133.96C757.64,-139.02 761.63,-144.71 765.48,-150.21"/>
<polygon fill="#009900" stroke="#009900" points="762.74,-152.4 771.35,-158.58 768.48,-148.38 762.74,-152.4"/>
</g>
<!-- vm -->
<g id="node39" class="node">
<title>vm</title>
<ellipse fill="#55aa55" stroke="#55aa55" cx="182.44" cy="-475.36" rx="27" ry="18"/>
<text text-anchor="middle" x="182.44" y="-471.66" font-family="Times,serif" font-size="14.00" fill="#ffffff">vm</text>
</g>
<!-- vm&#45;&gt;zl -->
<g id="edge78" class="edge">
<title>vm&#45;&gt;zl</title>
<path fill="none" stroke="#009900" d="M191.45,-492.45C191.88,-493.28 192.33,-494.11 192.77,-494.96"/>
<polygon fill="#009900" stroke="#009900" points="189.78,-496.79 197.54,-504 195.97,-493.52 189.78,-496.79"/>
</g>
<!-- vm&#45;&gt;tz -->
<g id="edge79" class="edge">
<title>vm&#45;&gt;tz</title>
<path fill="none" stroke="#009900" d="M208.58,-470.74C226.31,-467.6 249.98,-463.41 269.52,-459.96"/>
<polygon fill="#009900" stroke="#009900" points="270.35,-463.36 279.59,-458.18 269.13,-456.47 270.35,-463.36"/>
</g>
<!-- mm&#45;&gt;nr -->
<g id="edge80" class="edge">
<title>mm&#45;&gt;nr</title>
<path fill="none" stroke="#009900" d="M560.2,-679.66C567.92,-653.15 582.48,-603.2 591.58,-571.99"/>
<polygon fill="#009900" stroke="#009900" points="595,-572.76 594.43,-562.18 588.28,-570.8 595,-572.76"/>
</g>
<!-- rp&#45;&gt;bc -->
<g id="edge81" class="edge">
<title>rp&#45;&gt;bc</title>
<path fill="none" stroke="#009900" d="M419.53,-916.57C419.27,-916 419.01,-915.43 418.74,-914.85"/>
<polygon fill="#009900" stroke="#009900" points="421.77,-913.05 414.41,-905.43 415.41,-915.98 421.77,-913.05"/>
</g>
<!-- fh -->
<g id="node42" class="node">
<title>fh</title>
<ellipse fill="#55aa55" stroke="#55aa55" cx="1015.65" cy="-598.13" rx="27" ry="18"/>
<text text-anchor="middle" x="1015.65" y="-594.43" font-family="Times,serif" font-size="14.00" fill="#ffffff">fh</text>
</g>
<!-- fh&#45;&gt;sx -->
<g id="edge82" class="edge">
<title>fh&#45;&gt;sx</title>
<path fill="none" stroke="#009900" d="M1016.58,-616.25C1016.59,-616.4 1016.6,-616.54 1016.6,-616.69"/>
<polygon fill="#009900" stroke="#009900" points="1012.93,-613.46 1016.94,-623.26 1019.92,-613.1 1012.93,-613.46"/>
</g>
<!-- ls&#45;&gt;fj -->
<g id="edge83" class="edge">
<title>ls&#45;&gt;fj</title>
<path fill="none" stroke="#009900" d="M252.92,-478.93C249.16,-474.86 245.02,-470.39 240.98,-466.02"/>
<polygon fill="#009900" stroke="#009900" points="243.27,-463.34 233.91,-458.38 238.13,-468.1 243.27,-463.34"/>
</g>
<!-- xz -->
<g id="node44" class="node">
<title>xz</title>
<ellipse fill="#55aa55" stroke="#55aa55" cx="597.45" cy="-185.85" rx="27" ry="18"/>
<text text-anchor="middle" x="597.45" y="-182.15" font-family="Times,serif" font-size="14.00" fill="#ffffff">xz</text>
</g>
<!-- xz&#45;&gt;gz -->
<g id="edge85" class="edge">
<title>xz&#45;&gt;gz</title>
<path fill="none" stroke="#009900" d="M609.06,-169.54C609.17,-169.39 609.28,-169.24 609.39,-169.08"/>
<polygon fill="#009900" stroke="#009900" points="611.36,-172.35 614.31,-162.17 605.65,-168.29 611.36,-172.35"/>
</g>
<!-- xz&#45;&gt;mq -->
<g id="edge84" class="edge">
<title>xz&#45;&gt;mq</title>
<path fill="none" stroke="#009900" d="M617.74,-198.2C631.8,-206.75 650.71,-218.26 666.36,-227.78"/>
<polygon fill="#009900" stroke="#009900" points="664.77,-230.91 675.13,-233.11 668.41,-224.93 664.77,-230.91"/>
</g>
<!-- fv&#45;&gt;km -->
<g id="edge86" class="edge">
<title>fv&#45;&gt;km</title>
<path fill="none" stroke="#009900" d="M787.68,-193.14C789.83,-201.34 792.42,-211.22 794.81,-220.33"/>
<polygon fill="#009900" stroke="#009900" points="791.46,-221.36 797.39,-230.15 798.24,-219.58 791.46,-221.36"/>
</g>
<!-- rx -->
<g id="node62" class="node">
<title>rx</title>
<ellipse fill="none" stroke="#ffffff" cx="532.67" cy="-576.21" rx="27" ry="18"/>
<text text-anchor="middle" x="532.67" y="-572.51" font-family="Times,serif" font-size="14.00" fill="#ffffff">rx</text>
</g>
<!-- nr&#45;&gt;rx -->
<g id="edge87" class="edge">
<title>nr&#45;&gt;rx</title>
<path fill="none" stroke="#009900" d="M577.32,-555.02C573.18,-556.98 568.79,-559.06 564.44,-561.13"/>
<polygon fill="#009900" stroke="#009900" points="562.62,-558.12 555.09,-565.57 565.62,-564.44 562.62,-558.12"/>
</g>
<!-- lq&#45;&gt;mq -->
<g id="edge88" class="edge">
<title>lq&#45;&gt;mq</title>
<path fill="none" stroke="#009900" d="M680.06,-143.67C683,-163.15 687.73,-194.54 691.16,-217.31"/>
<polygon fill="#009900" stroke="#009900" points="687.73,-218.04 692.68,-227.4 694.65,-216.99 687.73,-218.04"/>
</g>
<!-- xv&#45;&gt;xz -->
<g id="edge89" class="edge">
<title>xv&#45;&gt;xz</title>
<path fill="none" stroke="#009900" d="M603.97,-209.83C603.93,-209.71 603.9,-209.58 603.86,-209.45"/>
<polygon fill="#009900" stroke="#009900" points="608.29,-212.38 602.29,-203.65 601.53,-214.22 608.29,-212.38"/>
</g>
<!-- cn&#45;&gt;tz -->
<g id="edge90" class="edge">
<title>cn&#45;&gt;tz</title>
<path fill="none" stroke="#009900" d="M183.59,-432.24C206.22,-439.05 241.54,-447.01 268.38,-451.51"/>
<polygon fill="#009900" stroke="#009900" points="268.15,-455.01 278.58,-453.11 269.24,-448.1 268.15,-455.01"/>
</g>
<!-- cn&#45;&gt;vm -->
<g id="edge91" class="edge">
<title>cn&#45;&gt;vm</title>
<path fill="none" stroke="#009900" d="M168.11,-439.53C169.24,-442.36 170.43,-445.33 171.63,-448.32"/>
<polygon fill="#009900" stroke="#009900" points="168.41,-449.71 175.38,-457.7 174.91,-447.11 168.41,-449.71"/>
</g>
<!-- pp&#45;&gt;jr -->
<g id="edge92" class="edge">
<title>pp&#45;&gt;jr</title>
<path fill="none" stroke="#009900" d="M742.77,-197.88C743.06,-195.06 743.37,-192.08 743.69,-189.09"/>
<polygon fill="#009900" stroke="#009900" points="747.17,-189.39 744.73,-179.08 740.21,-188.66 747.17,-189.39"/>
</g>
<!-- pp&#45;&gt;mq -->
<g id="edge93" class="edge">
<title>pp&#45;&gt;mq</title>
<path fill="none" stroke="#009900" d="M721.33,-228.62C721.2,-228.71 721.06,-228.8 720.93,-228.88"/>
<polygon fill="#009900" stroke="#009900" points="721.42,-224.39 714.94,-232.77 725.23,-230.27 721.42,-224.39"/>
</g>
<!-- hn -->
<g id="node51" class="node">
<title>hn</title>
<ellipse fill="#55aa55" stroke="#55aa55" cx="604.5" cy="-896.57" rx="27" ry="18"/>
<text text-anchor="middle" x="604.5" y="-892.87" font-family="Times,serif" font-size="14.00" fill="#ffffff">hn</text>
</g>
<!-- hn&#45;&gt;tg -->
<g id="edge94" class="edge">
<title>hn&#45;&gt;tg</title>
<path fill="none" stroke="#009900" d="M581.14,-887.44C566.04,-881.54 546.18,-873.77 529.53,-867.26"/>
<polygon fill="#009900" stroke="#009900" points="530.74,-863.98 520.15,-863.6 528.19,-870.5 530.74,-863.98"/>
</g>
<!-- qn&#45;&gt;tg -->
<g id="edge96" class="edge">
<title>qn&#45;&gt;tg</title>
<path fill="none" stroke="#009900" d="M562.95,-910.91C551.05,-900.75 534.86,-886.93 521.49,-875.52"/>
<polygon fill="#009900" stroke="#009900" points="523.47,-872.61 513.59,-868.78 518.92,-877.93 523.47,-872.61"/>
</g>
<!-- qn&#45;&gt;hn -->
<g id="edge95" class="edge">
<title>qn&#45;&gt;hn</title>
<path fill="none" stroke="#009900" d="M593.27,-909.56C593.32,-909.5 593.36,-909.45 593.41,-909.4"/>
<polygon fill="#009900" stroke="#009900" points="589.65,-919.1 593.54,-909.24 584.35,-914.52 589.65,-919.1"/>
</g>
<!-- rr&#45;&gt;tg -->
<g id="edge98" class="edge">
<title>rr&#45;&gt;tg</title>
<path fill="none" stroke="#009900" d="M475.93,-925.42C479.61,-912.92 484.59,-896.04 488.76,-881.88"/>
<polygon fill="#009900" stroke="#009900" points="492.16,-882.73 491.63,-872.15 485.45,-880.75 492.16,-882.73"/>
</g>
<!-- rr&#45;&gt;rp -->
<g id="edge97" class="edge">
<title>rr&#45;&gt;rp</title>
<path fill="none" stroke="#009900" d="M444.54,-937.65C444.47,-937.64 444.4,-937.62 444.33,-937.61"/>
<polygon fill="#009900" stroke="#009900" points="454.63,-936.3 444.11,-937.56 453.12,-943.14 454.63,-936.3"/>
</g>
<!-- cf&#45;&gt;zc -->
<g id="edge100" class="edge">
<title>cf&#45;&gt;zc</title>
<path fill="none" stroke="#009900" d="M427.67,-854.71C427.76,-854.92 427.85,-855.12 427.93,-855.32"/>
<polygon fill="#009900" stroke="#009900" points="424.75,-856.78 431.9,-864.6 431.19,-854.03 424.75,-856.78"/>
</g>
<!-- cf&#45;&gt;tg -->
<g id="edge99" class="edge">
<title>cf&#45;&gt;tg</title>
<path fill="none" stroke="#009900" d="M446.15,-843.08C450.95,-844.16 456.03,-845.31 461.06,-846.44"/>
<polygon fill="#009900" stroke="#009900" points="460.66,-849.93 471.18,-848.71 462.19,-843.1 460.66,-849.93"/>
</g>
<!-- qj&#45;&gt;fh -->
<g id="edge101" class="edge">
<title>qj&#45;&gt;fh</title>
<path fill="none" stroke="#009900" d="M1001.74,-578.02C1001.85,-578.17 1001.95,-578.32 1002.06,-578.48"/>
<polygon fill="#009900" stroke="#009900" points="995.7,-575.44 1004.27,-581.68 1001.46,-571.46 995.7,-575.44"/>
</g>
<!-- qj&#45;&gt;xf -->
<g id="edge102" class="edge">
<title>qj&#45;&gt;xf</title>
<path fill="none" stroke="#009900" d="M972.83,-575.15C957.71,-587.15 935.6,-604.69 918.48,-618.29"/>
<polygon fill="#009900" stroke="#009900" points="916.18,-615.64 910.52,-624.6 920.53,-621.12 916.18,-615.64"/>
</g>
<!-- xf&#45;&gt;sq -->
<g id="edge103" class="edge">
<title>xf&#45;&gt;sq</title>
<path fill="none" stroke="#009900" d="M887.19,-656.13C885.49,-661.32 883.58,-667.12 881.72,-672.79"/>
<polygon fill="#009900" stroke="#009900" points="878.28,-672.06 878.49,-682.65 884.93,-674.24 878.28,-672.06"/>
</g>
<!-- xf&#45;&gt;kr -->
<g id="edge108" class="edge">
<title>xf&#45;&gt;kr</title>
<path fill="none" stroke="#009900" d="M891.34,-620.56C890.67,-613.02 889.86,-604.07 889.11,-595.68"/>
<polygon fill="#009900" stroke="#009900" points="892.57,-595.14 888.19,-585.5 885.6,-595.77 892.57,-595.14"/>
</g>
<!-- xf&#45;&gt;dk -->
<g id="edge104" class="edge">
<title>xf&#45;&gt;dk</title>
<path fill="none" stroke="#009900" d="M906.85,-654.19C917.88,-666.62 933.48,-684.21 946,-698.32"/>
<polygon fill="#009900" stroke="#009900" points="943.71,-701 952.96,-706.16 948.94,-696.36 943.71,-701"/>
</g>
<!-- xf&#45;&gt;ff -->
<g id="edge106" class="edge">
<title>xf&#45;&gt;ff</title>
<path fill="none" stroke="#009900" d="M868.82,-630.26C842.92,-621.39 801.61,-607.23 772.44,-597.23"/>
<polygon fill="#009900" stroke="#009900" points="773.26,-593.82 762.67,-593.88 770.99,-600.44 773.26,-593.82"/>
</g>
<!-- xf&#45;&gt;kh -->
<g id="edge107" class="edge">
<title>xf&#45;&gt;kh</title>
<path fill="none" stroke="#009900" d="M911.09,-652.02C930.19,-662.39 960.71,-676.07 984.64,-685.19"/>
<polygon fill="#009900" stroke="#009900" points="983.52,-688.51 994.11,-688.68 985.94,-681.94 983.52,-688.51"/>
</g>
<!-- xf&#45;&gt;fh -->
<g id="edge105" class="edge">
<title>xf&#45;&gt;fh</title>
<path fill="none" stroke="#009900" d="M917.2,-630.56C935.56,-624.51 961.03,-616.12 981.47,-609.39"/>
<polygon fill="#009900" stroke="#009900" points="982.64,-612.69 991.04,-606.24 980.45,-606.04 982.64,-612.69"/>
</g>
<!-- np&#45;&gt;tz -->
<g id="edge109" class="edge">
<title>np&#45;&gt;tz</title>
<path fill="none" stroke="#009900" d="M220.55,-417.63C235.87,-424.1 256.27,-432.71 273.26,-439.87"/>
<polygon fill="#009900" stroke="#009900" points="272.23,-443.24 282.8,-443.9 274.95,-436.79 272.23,-443.24"/>
</g>
<!-- broadcaster0 -->
<g id="node58" class="node">
<title>broadcaster0</title>
<ellipse fill="none" stroke="#ffffff" cx="789.3" cy="-17.95" rx="55.79" ry="18"/>
<text text-anchor="middle" x="789.3" y="-14.25" font-family="Times,serif" font-size="14.00" fill="#ffffff">broadcaster0</text>
</g>
<!-- broadcaster0&#45;&gt;sj -->
<g id="edge11" class="edge">
<title>broadcaster0&#45;&gt;sj</title>
<path fill="none" stroke="#009900" d="M780.96,-35.77C773.75,-51.17 763.24,-73.65 755.05,-91.16"/>
<polygon fill="#009900" stroke="#009900" points="751.84,-89.75 750.77,-100.29 758.18,-92.72 751.84,-89.75"/>
</g>
<!-- broadcaster1 -->
<g id="node59" class="node">
<title>broadcaster1</title>
<ellipse fill="none" stroke="#ffffff" cx="518.63" cy="-1096.85" rx="55.79" ry="18"/>
<text text-anchor="middle" x="518.63" y="-1093.15" font-family="Times,serif" font-size="14.00" fill="#ffffff">broadcaster1</text>
</g>
<!-- broadcaster1&#45;&gt;pf -->
<g id="edge12" class="edge">
<title>broadcaster1&#45;&gt;pf</title>
<path fill="none" stroke="#009900" d="M519.57,-1078.84C520.42,-1062.45 521.7,-1037.97 522.69,-1018.97"/>
<polygon fill="#009900" stroke="#009900" points="526.2,-1018.95 523.22,-1008.79 519.21,-1018.59 526.2,-1018.95"/>
</g>
<!-- broadcaster2 -->
<g id="node60" class="node">
<title>broadcaster2</title>
<ellipse fill="none" stroke="#ffffff" cx="1117.08" cy="-731.15" rx="55.79" ry="18"/>
<text text-anchor="middle" x="1117.08" y="-727.45" font-family="Times,serif" font-size="14.00" fill="#ffffff">broadcaster2</text>
</g>
<!-- broadcaster2&#45;&gt;kh -->
<g id="edge13" class="edge">
<title>broadcaster2&#45;&gt;kh</title>
<path fill="none" stroke="#009900" d="M1081.03,-717.4C1071.87,-713.9 1062.08,-710.17 1053.09,-706.73"/>
<polygon fill="#009900" stroke="#009900" points="1054.31,-703.45 1043.72,-703.16 1051.81,-709.99 1054.31,-703.45"/>
</g>
<!-- broadcaster3 -->
<g id="node61" class="node">
<title>broadcaster3</title>
<ellipse fill="none" stroke="#ffffff" cx="55.74" cy="-396.34" rx="55.79" ry="18"/>
<text text-anchor="middle" x="55.74" y="-392.64" font-family="Times,serif" font-size="14.00" fill="#ffffff">broadcaster3</text>
</g>
<!-- broadcaster3&#45;&gt;cn -->
<g id="edge14" class="edge">
<title>broadcaster3&#45;&gt;cn</title>
<path fill="none" stroke="#009900" d="M100.44,-407.26C108.88,-409.32 117.6,-411.45 125.71,-413.43"/>
<polygon fill="#009900" stroke="#009900" points="125.04,-416.87 135.59,-415.85 126.7,-410.07 125.04,-416.87"/>
</g>
</g>
</svg>
